<?xml version="1.0" standalone="no"?>
<!DOCTYPE svg PUBLIC "-//W3C//DTD SVG 1.1//EN"
  "http://www.w3.org/Graphics/SVG/1.1/DTD/svg11.dtd">
<svg version="1.1" xmlns="http://www.w3.org/2000/svg" xmlns:xlink="http://www.w3.org/1999/xlink" width="1920" height="1080" viewBox="-1040.888888888889 -32 1889.7777777777778 1063" id="ccdiagram"><filter id="grayscale"><feColorMatrix type="matrix" values="0.3333 0.3333 0.3333 0 0 0.3333 0.3333 0.3333 0 0 0.3333 0.3333 0.3333 0 0 0 0 0 1 0"></feColorMatrix></filter><defs><style type="text/css">@import url('https://fonts.googleapis.com/css?family=Open+Sans:400,700|Inconsolata:400');</style></defs><g><g style="pointer-events: none;"><g><pattern id="gridPatternMinor" x="0" y="37" width="128" height="74" patternUnits="userSpaceOnUse"><path d="M 0 0 L 128 74" stroke="#eee" stroke-width="1"></path><path d="M 128 0 L 0 74" stroke="#eee" stroke-width="1"></path></pattern><polygon points="0 0, 768 444, -192 999, -960 555" fill="url(#gridPatternMinor)"></polygon></g><polygon points="-960 555, -960 565, -192 1009, -192 999" stroke-linejoin="round" stroke="#54626f" stroke-width="1" fill="#f9f9f9"></polygon><polygon points="-192 1009, 768 454, 768 444, -192 999" stroke-linejoin="round" stroke="#54626f" stroke-width="1" fill="#e2e2e2"></polygon></g><g pointer-events="auto"><g opacity="1"><g id="35155d75-a622-4a82-bd9c-6475b766e114"><svg x="-6" y="207" overflow="visible"><g fill="#e8e8e8"><polygon points="0 0, 192 111, -42 246, -234 135" stroke="#e8e8e8" stroke-width="40"></polygon></g></svg></g></g><g opacity="1"><g id="d3caf0f6-9837-4e1d-95db-210e74b8cc15"><svg x="248" y="356" overflow="visible"><g fill="#e8e8e8"><polygon points="0 0, 192 111, -40 245, -232 134" stroke="#e8e8e8" stroke-width="40"></polygon></g></svg></g></g><g opacity="1"><g><g><polygon points="0 185, 96 241, 48 268, 16 268, -48 231, -48 213" fill="#4286c5" stroke-width="0" stroke="#818181"></polygon></g></g></g><g opacity="1"><g><g><polygon points="384 407, 480 463, 432 490, 400 490, 336 453, 336 435" fill="#4286c5" stroke-width="0" stroke="#818181"></polygon></g></g></g></g><g style="pointer-events: none;"><g><pattern id="gridPatternMajor" x="0" y="37" width="128" height="74" patternUnits="userSpaceOnUse"><path d="M 64 0 L 128 37 64 74 0 37 z" stroke="#54626f" stroke-width="1" fill="none"></path></pattern><polygon points="0 0, 768 444, -192 999, -960 555" fill="url(#gridPatternMajor)"></polygon></g></g><g pointer-events="auto"></g><g></g><g pointer-events="auto"></g><g></g><g pointer-events="auto"></g><g pointer-events="none"></g><g pointer-events="auto"><g><g cursor="cell"><line x1="-272" y1="620" x2="-160" y2="592" stroke="red" stroke-width="8" opacity="0"></line><line x1="-272" y1="620" x2="-160" y2="592" stroke="#000000" stroke-width="2" stroke-linecap="round"></line></g></g><g><g cursor="cell"><line x1="-128" y1="500" x2="-144" y2="416" stroke="red" stroke-width="8" opacity="0"></line><line x1="-128" y1="500" x2="-144" y2="416" stroke="#000000" stroke-width="2" stroke-linecap="round"></line></g></g><g><g cursor="cell"><line x1="-320" y1="500" x2="-128" y2="500" stroke="red" stroke-width="8" opacity="0"></line><line x1="-320" y1="500" x2="-128" y2="500" stroke="#000000" stroke-width="2" stroke-linecap="round"></line></g></g><g><g cursor="cell"><line x1="-512" y1="333" x2="-400" y2="435" stroke="red" stroke-width="8" opacity="0"></line><line x1="-512" y1="333" x2="-400" y2="435" stroke="#000000" stroke-width="2" stroke-linecap="round"></line></g></g><g><g cursor="cell"><line x1="-492" y1="765" x2="-272" y2="620" stroke="red" stroke-width="8" opacity="0"></line><line x1="-492" y1="765" x2="-272" y2="620" stroke="#000000" stroke-width="2" stroke-linecap="round"></line></g></g><g><g cursor="cell"><line x1="-160" y1="592" x2="-304" y2="546" stroke="red" stroke-width="8" opacity="0"></line><line x1="-160" y1="592" x2="-304" y2="546" stroke="#000000" stroke-width="2" stroke-linecap="round"></line></g></g><g><g cursor="cell"><line x1="-400" y1="435" x2="-592" y2="379" stroke="red" stroke-width="8" opacity="0"></line><line x1="-400" y1="435" x2="-592" y2="379" stroke="#000000" stroke-width="2" stroke-linecap="round"></line></g></g><g><g cursor="cell"><line x1="-128" y1="500" x2="48" y2="509" stroke="red" stroke-width="8" opacity="0"></line><line x1="-128" y1="500" x2="48" y2="509" stroke="#000000" stroke-width="2" stroke-linecap="round"></line></g></g><g><g cursor="cell"><line x1="128" y1="518" x2="98" y2="640" stroke="red" stroke-width="8" opacity="0"></line><line x1="128" y1="518" x2="98" y2="640" stroke="#000000" stroke-width="2" stroke-linecap="round"></line><polygon points="96 648, 111 634, 98 637, 88 632, 96 648" stroke-linejoin="round" fill="#000000" stroke="#000000" stroke-width="1"></polygon></g></g></g><g pointer-events="auto"><g opacity="1"><g id="79634a3c-65cf-40cd-9431-17fcb0ec8441" transform="translate(0 0)"><svg x="-128" y="296" height="111" width="128" fill-rule="evenodd"><path d="M64 74v37l64-37V37L64 74z" fill="#b8b8bb"></path><path d="M0 37v37l64 37V74L0 37z" fill="#d2d2d4"></path><path d="M0 37L64 0l64 37-64 37L0 37z" fill="#ececed"></path><path d="M64 73.407l62.111-35.86.514.889-62.487 36.078h-.276L.743 38.072l.514-.89L64 73.407z" fill="#83838a"></path><path d="M63.486 74h1.027v36h-1.027z" fill="#83838a"></path><path d="M128 37v37l-64 37L0 74V37L64 0l64 37zM2.054 38.185v34.63L64 108.627l61.946-35.812v-34.63L64 2.373 2.054 38.185z" fill="#000000"></path></svg><svg x="-70" y="315" width="54" height="36" style="overflow: visible; cursor: default;"><rect transform="matrix(0.707 0.409 -0.707 0.409 0 0)" width="54" height="36" rx="5" ry="5" fill="#4286c5"></rect><text transform="matrix(0.707 0.409 -0.707 0.409 0 0)" font-family="Open Sans" text-anchor="middle" x="50%" font-weight="normal" font-size="20pt" y="80%" fill="#ffffff"><tspan>C4</tspan></text></svg></g></g><g opacity="1"><g id="741560b0-9199-4654-bc40-34f4f273b628" transform="translate(0 0)"><svg x="96" y="426" height="111" width="128" fill-rule="evenodd"><path d="M64 74v37l64-37V37L64 74z" fill="#b8b8bb"></path><path d="M0 37v37l64 37V74L0 37z" fill="#d2d2d4"></path><path d="M0 37L64 0l64 37-64 37L0 37z" fill="#ececed"></path><path d="M64 73.407l62.111-35.86.514.889-62.487 36.078h-.276L.743 38.072l.514-.89L64 73.407z" fill="#83838a"></path><path d="M63.486 74h1.027v36h-1.027z" fill="#83838a"></path><path d="M128 37v37l-64 37L0 74V37L64 0l64 37zM2.054 38.185v34.63L64 108.627l61.946-35.812v-34.63L64 2.373 2.054 38.185z" fill="#000000"></path></svg><svg x="154" y="444" width="54" height="36" style="overflow: visible; cursor: default;"><rect transform="matrix(0.707 0.409 -0.707 0.409 0 0)" width="54" height="36" rx="5" ry="5" fill="#4286c5"></rect><text transform="matrix(0.707 0.409 -0.707 0.409 0 0)" font-family="Open Sans" text-anchor="middle" x="50%" font-weight="normal" font-size="20pt" y="80%" fill="#ffffff"><tspan>M4</tspan></text></svg></g></g><g opacity="1"><g id="67b4969e-6f6d-409a-86b7-4ed94d0a530c" transform="translate(0 0)"><svg x="-430" y="455" height="108.05" width="123" viewBox="0 0 32.544 28.588"><path d="M10.115 6.02v14.218l7.873-4.318V1.474z" fill="#b8b8bb" fill-rule="evenodd" stroke="#83838a" stroke-width=".268"></path><path d="M.265 2.228l9.85 3.791v14.219l-9.85-8.531z" fill="#d2d2d4" fill-rule="evenodd" stroke="#83838a" stroke-width=".265"></path><path d="M10.115 6.02l7.873-4.546L3.548.332.265 2.228z" fill="#ececed" fill-rule="evenodd" stroke="#83838a" stroke-width=".265"></path><path d="M.265 11.707l9.85 8.53 7.873-4.317V1.474L3.392.271.265 2.076z" fill="none" fill-rule="evenodd" stroke="#000000" stroke-width=".529"></path><path d="M22.429 3.65L14.22 8.39l14.828 10.397 3.231-1.866z" fill="#ececed" fill-rule="evenodd" stroke="#83838a" stroke-width=".268"></path><path d="M14.22 8.39V22.61l14.777 5.687.051-9.509z" fill="#d2d2d4" fill-rule="evenodd" stroke="#83838a" stroke-width=".265"></path><path d="M29.048 18.787l3.231-1.866V26.4l-3.282 1.897z" fill="#b8b8bb" fill-rule="evenodd" stroke="#83838a" stroke-width=".265"></path><path d="M22.429 3.65L14.22 8.39V22.61l14.777 5.687 3.282-1.897v-9.478z" fill="none" fill-rule="evenodd" stroke="#000000" stroke-width=".529"></path><path d="M25.604 20.872c-.071-.975-.928-2.116-1.982-2.599a2.547 2.547 0 0 0-.398-.144c-.566-.91-1.446-1.74-2.441-2.195-1.501-.687-2.76-.293-3.057.872-1.062-.091-1.77.532-1.77 1.597 0 1.436 1.27 3.181 2.84 3.899l5.961 2.73c1.41.645 2.555.121 2.555-1.17 0-1.004-.695-2.2-1.708-2.99zm-.847 3.38l-5.962-2.73c-1.098-.502-1.987-1.723-1.987-2.729 0-.916.74-1.336 1.704-1.022v-.018c0-1.148 1.016-1.613 2.27-1.04.95.435 1.763 1.34 2.102 2.252.198-.065.456-.041.738.088.626.287 1.135.986 1.135 1.56a.657.657 0 0 1-.156.454c.052.019.105.042.156.065.94.43 1.704 1.479 1.704 2.34 0 .86-.763 1.21-1.704.78z" fill="#4286c5" stroke-width=".017"></path></svg></g></g><g opacity="1"><g id="2685515d-0fdf-4c31-b26d-7cf5ad8c321d" transform="translate(0 0)"><svg x="-552" y="700" height="95.068" width="63" viewBox="0 0 16.669 25.153"><path d="M16.668 22.903q0 1.64-.864 2.091-.865.451-2.297-.376L3.161 18.645q-1.433-.827-2.297-2.276Q.001 14.921 0 13.28q0-.723.042-1.39.042-.666.166-1.394.124-.727.313-1.302.19-.575.51-1.039.319-.464.733-.683.414-.22 1.012-.147.598.073 1.32.49.107.06.497.58.391.52.882 1.165.491.646 1.279 1.394.788.75 1.58 1.207.793.458 1.58.618.788.161 1.28.083.49-.079.881-.147.39-.069.497-.007.722.416 1.32 1.035.598.619 1.013 1.315.414.697.734 1.531t.509 1.627q.19.793.313 1.664.124.872.166 1.586.042.713.042 1.438zM12.88 8.51q0 2.173-1.332 2.942-1.332.769-3.214-.318-1.882-1.086-3.214-3.393Q3.79 5.434 3.79 3.26q0-2.173 1.331-2.942 1.332-.77 3.214.317t3.214 3.394q1.332 2.306 1.332 4.48z" fill="#000" stroke="#000000" stroke-width=".268"></path></svg></g></g></g><g pointer-events="auto"></g><g pointer-events="auto"><g opacity="1"><g id="9fd806e5-adf8-44be-a1f0-370f89655e5e" transform="translate(0 0)"><svg x="-272" y="620" overflow="visible"><g transform="scale(0.8944271909999159) matrix(0.707 0.409 -0.707 0.409 0 0)"><circle cx="0" cy="0" fill="#000000" r="23"></circle><svg width="21" height="32" x="-10.5" y="-16" style="fill: rgb(255, 255, 255);"><svg xmlns="http://www.w3.org/2000/svg" width="21" height="32" viewBox="0 0 21 32"><path d="M5.714 13.714h9.143v-3.429c0-2.518-2.054-4.571-4.571-4.571s-4.571 2.054-4.571 4.571v3.429zm14.857 1.715v10.286c0 .946-.768 1.714-1.714 1.714H1.714A1.715 1.715 0 0 1 0 25.715V15.429c0-.946.768-1.714 1.714-1.714h.571v-3.429c0-4.393 3.607-8 8-8s8 3.607 8 8v3.429h.571c.946 0 1.714.768 1.714 1.714z"></path></svg></svg></g></svg></g></g><g opacity="1"><g id="7adedb36-55c3-4d5c-a167-c2c2435ce338" transform="translate(0 0)"><svg x="-112" y="583" overflow="visible"><g transform=" "><circle cx="0" cy="0" fill="transparent" r="40"></circle><svg width="100" height="100" x="-50" y="-50" style=""><svg id="Layer_1" data-name="Layer 1" xmlns="http://www.w3.org/2000/svg" width="100" height="100" viewBox="0 0 100 100"><path d="M85.23 58v3.19C85.23 67 78.85 73 71 73H29c-7.85 0-14.23-6-14.23-11.81V58z" fill="#9d5125"></path><path d="M41.89 26.9a18 18 0 0 1 16.42 10.56 9.14 9.14 0 0 1 14.29 7.18c7.1.59 12.63 7.44 12.63 12.88v1.18c0 5.85-6.38 11.78-14.26 11.78H29c-7.86 0-14.24-5.93-14.24-11.78v-1.17c0-4.51 3.79-10.71 9.12-12.25v-.51A17.94 17.94 0 0 1 41.89 26.9z" fill="#f58535"></path><path d="M31.84 47.81h2.79L37.43 61l3-13.16h2.79l-4.15 16.45h-3.35zM44.91 47.81h5.22c3.16 0 4.55 2 4.55 4.8s-1.73 4.87-4.82 4.87h-2.32v6.81h-2.63zm2.63 7.69h1.87c1.41 0 2.63-.76 2.63-2.84 0-1.78-.71-2.86-2.82-2.86h-1.68zM67 58.38v.35c0 3-1.2 5.89-5.08 5.89-4.16 0-5.45-2.68-5.45-8.56s1.29-8.56 5.47-8.56c4.68 0 5 3.46 5 5.17V53h-2.62v-.28c0-1.52-.46-3.28-2.35-3.21s-2.82 1.2-2.82 6.51.85 6.61 2.85 6.61c2.19 0 2.45-2.45 2.45-4v-.28z" fill="#fff"></path></svg></svg></g></svg></g></g><g opacity="1"><g id="32090c0e-6d52-4506-8cb2-8793f7d914a5" transform="translate(0 0)"><svg x="-128" y="500" overflow="visible"><g transform=" "><circle cx="0" cy="0" fill="transparent" r="40"></circle><svg width="100" height="100" x="-50" y="-50" style=""><svg id="Layer_1" data-name="Layer 1" xmlns="http://www.w3.org/2000/svg" width="100" height="100" viewBox="0 0 100 100"><g><circle cx="50" cy="51.25" r="30.43" fill="#9d5025"></circle><circle cx="50" cy="48.75" r="30.43" fill="#f58536"></circle><g fill="#fff"><path d="M47.5 30.62h5v36.46h-5z"></path><path d="M43.77 32.44L50 21.65l6.23 10.79H43.77zM43.77 65.26L50 76.05l6.23-10.79H43.77z"></path></g><g fill="#fff"><path d="M64.12 46.25h12.89v5H64.12z"></path><path d="M65.94 54.98l-10.79-6.23 10.79-6.23v12.46z"></path></g><g fill="#fff"><path d="M22.98 46.25h12.89v5H22.98z"></path><path d="M34.06 54.98l10.79-6.23-10.79-6.23v12.46z"></path></g></g></svg></svg></g></svg></g></g><g opacity="1"><g id="07f8f328-7525-4cde-a814-f036b7ed3711" transform="translate(0 0)"><svg x="80" y="694" overflow="visible"><g transform=" "><circle cx="0" cy="0" fill="transparent" r="40"></circle><svg width="100" height="100" x="-50" y="-50" style=""><svg id="Layer_1" data-name="Layer 1" xmlns="http://www.w3.org/2000/svg" width="100" height="100" viewBox="0 0 100 100"><g><path fill="#8c3123" d="M21.54 23.23l-5.46 2.73v47.97l5.46 2.73 13.4-26.72-13.4-26.71z"></path><path fill="#e05243" d="M50 69.76l-28.46 6.89V23.23L50 30.12l13.45 19.9L50 69.76z"></path><path fill="#8c3123" d="M50 69.76l28.45 6.89 4.92-26.03-4.92-27.39L50 30.12v39.64z"></path><path fill="#e05243" d="M78.45 23.23l5.47 2.73v47.97l-5.47 2.73V23.23z"></path><path fill="#8c3123" d="M37.59 58.78L50 60.37l9.84-10.35L50 39.68l-12.41 1.56v17.54z"></path><path fill="#5e1f18" d="M62.41 32.75L50 35.01l-12.41-2.26L50 9l12.41 23.75z"></path><path fill="#f2b0a9" d="M62.41 67.25L50 64.97l-12.41 2.28L50 91l12.41-23.75z"></path><path fill="#e05243" d="M62.41 32.75L50 29.68V9l12.41 6.2v17.55z"></path><path fill="#8c3123" d="M37.59 32.75L50 29.68V9l-12.41 6.2v17.55z"></path><path fill="#e05243" d="M50 91l12.41-6.2V67.25L50 70.32V91z"></path><path fill="#8c3123" d="M50 91l-12.41-6.2V67.25L50 70.32V91z"></path><path fill="#e05243" d="M62.41 58.78L50 60.37V39.68l12.41 1.56v17.54z"></path></g></svg></svg></g></svg></g></g><g opacity="1"><g id="858bf449-960e-40cf-af64-761a12e2802b" transform="translate(0 0)"><svg x="-592" y="379" overflow="visible"><g transform=" "><circle cx="0" cy="0" fill="transparent" r="40"></circle><svg width="100" height="100" x="-50" y="-50" style=""><svg id="Layer_1" data-name="Layer 1" xmlns="http://www.w3.org/2000/svg" width="100" height="100" viewBox="0 0 100 100"><g><path d="M50 25.06L76.5 29v2.32c0 3.45-11.87 6.23-26.51 6.23s-26.5-2.78-26.5-6.23V28.8z" fill="#8c3123"></path><path d="M50 41.8c11.07 0 20.55-1.59 24.52-3.85l1.3-2.2.53-2v2.48l-8.67 37c0 2.3-7.91 4.15-17.67 4.15s-17.66-1.85-17.66-4.15l-8.67-37V33.8l2 4.23C29.66 40.25 39.05 41.8 50 41.8z" fill="#8c3123"></path><path d="M50 22.58c14.64 0 26.51 2.79 26.51 6.22S64.63 35 50 35s-26.5-2.75-26.5-6.2 11.86-6.22 26.5-6.22z" fill="#e05243"></path><path d="M50 39.32c13.65 0 24.88-2.41 26.34-5.53l-8.67 37c0 2.3-7.91 4.15-17.67 4.15S32.33 73.1 32.33 70.8l-8.67-37c1.47 3.11 12.7 5.52 26.34 5.52z" fill="#e05243"></path><path fill="#fff" d="M43.76 42.85h11.48v11.4H43.76z"></path><ellipse cx="40.29" cy="63.9" rx="5.66" ry="5.62" fill="#fff"></ellipse><path fill="#fff" fill-rule="evenodd" d="M64.09 69.26H52.75l5.67-10.48 5.67 10.48z"></path></g></svg></svg></g></svg></g></g><g opacity="1"><g id="4eb25482-bc38-4950-9c19-9a11501cc932" transform="translate(0 0)"><svg x="-512" y="333" overflow="visible"><g transform="scale(1.7469281074217107) matrix(0.707 0.409 -0.707 0.409 0 0)"><circle cx="0" cy="0" fill="#000000" r="23"></circle><svg width="27" height="32" x="-13.5" y="-16" style="fill: rgb(255, 255, 255);"><svg xmlns="http://www.w3.org/2000/svg" width="27" height="32" viewBox="0 0 27 32"><path d="M13.714 2.286c7.571 0 13.714 6.143 13.714 13.714 0 6.054-3.929 11.196-9.375 13.018-.696.125-.946-.304-.946-.661 0-.446.018-1.929.018-3.768 0-1.286-.429-2.107-.929-2.536 3.054-.339 6.268-1.5 6.268-6.768 0-1.5-.536-2.714-1.411-3.679.143-.357.607-1.75-.143-3.643-1.143-.357-3.768 1.411-3.768 1.411a12.895 12.895 0 0 0-6.858 0S7.659 7.606 6.516 7.963c-.75 1.893-.286 3.286-.143 3.643-.875.964-1.411 2.179-1.411 3.679 0 5.25 3.196 6.429 6.25 6.768-.393.357-.75.964-.875 1.839-.786.357-2.786.964-3.982-1.143-.75-1.304-2.107-1.411-2.107-1.411-1.339-.018-.089.839-.089.839.893.411 1.518 2 1.518 2 .804 2.446 4.625 1.625 4.625 1.625 0 1.143.018 2.214.018 2.554 0 .357-.25.786-.946.661-5.446-1.821-9.375-6.964-9.375-13.018 0-7.571 6.143-13.714 13.714-13.714zM5.196 21.982c.036-.071-.018-.161-.125-.214-.107-.036-.196-.018-.232.036-.036.071.018.161.125.214.089.054.196.036.232-.036zm.554.607c.071-.054.054-.179-.036-.286-.089-.089-.214-.125-.286-.054-.071.054-.054.179.036.286.089.089.214.125.286.054zm.536.804c.089-.071.089-.214 0-.339-.071-.125-.214-.179-.304-.107-.089.054-.089.196 0 .321s.232.179.304.125zm.75.75c.071-.071.036-.232-.071-.339-.125-.125-.286-.143-.357-.054-.089.071-.054.232.071.339.125.125.286.143.357.054zm1.018.446c.036-.107-.071-.232-.232-.286-.143-.036-.304.018-.339.125s.071.232.232.268c.143.054.304 0 .339-.107zm1.125.09c0-.125-.143-.214-.304-.196-.161 0-.286.089-.286.196 0 .125.125.214.304.196.161 0 .286-.089.286-.196zm1.035-.179c-.018-.107-.161-.179-.321-.161-.161.036-.268.143-.25.268.018.107.161.179.321.143s.268-.143.25-.25z"></path></svg></svg></g></svg></g></g></g><g pointer-events="auto"><g opacity="1"><g id="1795d0b6-1f55-43b4-adbd-be2def759bde" transform="translate(0 0)"><svg x="416" y="426" overflow="visible"><text stroke="#000000" stroke-width="2" font-family="Open Sans" y="65" font-size="50pt" fill="#ffffff" font-weight="bold" transform="matrix(0.707 0.409 -0.707 0.409 0 0)" xml:space="preserve"><tspan x="8" dy="0">A</tspan></text><text font-family="Open Sans" y="65" font-size="50pt" fill="#ffffff" font-weight="bold" transform="matrix(0.707 0.409 -0.707 0.409 0 0)" xml:space="preserve"><tspan x="8" dy="0">A</tspan></text></svg></g></g><g opacity="1"><g id="34e3c7b8-71a7-4231-8aab-5f31312f0f64" transform="translate(0 0)"><svg x="-208" y="583" overflow="visible"><text stroke="#ffffff" stroke-width="4" font-family="Open Sans" y="36.5" font-size="25pt" fill="#f5b720" font-weight="bold" transform="matrix(0.707 0.409 -0.707 0.409 0 0)" xml:space="preserve"><tspan x="8" dy="0">default VPC</tspan></text><text font-family="Open Sans" y="36.5" font-size="25pt" fill="#f5b720" font-weight="bold" transform="matrix(0.707 0.409 -0.707 0.409 0 0)" xml:space="preserve"><tspan x="8" dy="0">default VPC</tspan></text></svg></g></g><g opacity="1"><g id="f8a0f67f-5135-447e-89cb-aaf7c9fcaf77" transform="translate(0 0)"><svg x="-496" y="472" overflow="visible"><text stroke="#ffffff" stroke-width="4" font-family="Open Sans" y="36.5" font-size="25pt" fill="#ffc107" font-weight="bold" transform="matrix(0.707 0.409 -0.707 0.409 0 0)" xml:space="preserve"><tspan x="8" dy="0">Internet Gateway</tspan></text><text font-family="Open Sans" y="36.5" font-size="25pt" fill="#ffc107" font-weight="bold" transform="matrix(0.707 0.409 -0.707 0.409 0 0)" xml:space="preserve"><tspan x="8" dy="0">Internet Gateway</tspan></text></svg></g></g><g opacity="1"><g id="beee3637-356b-4061-9a99-a9d726b7d46f" transform="translate(0 0)"><svg x="-560" y="749" overflow="visible"><text stroke="#ffffff" stroke-width="4" font-family="Open Sans" y="36.5" font-size="25pt" fill="#f5b720" font-weight="bold" transform="matrix(0.707 0.409 -0.707 0.409 0 0)" xml:space="preserve"><tspan x="8" dy="0">User</tspan></text><text font-family="Open Sans" y="36.5" font-size="25pt" fill="#f5b720" font-weight="bold" transform="matrix(0.707 0.409 -0.707 0.409 0 0)" xml:space="preserve"><tspan x="8" dy="0">User</tspan></text></svg></g></g><g opacity="1"><g id="31910fa9-cc37-4ab1-8c23-6a79e72e3cc8" transform="translate(0 0)"><svg x="-240" y="287" overflow="visible"><text stroke="#ffffff" stroke-width="4" font-family="Open Sans" y="30.799999999999997" font-size="20pt" fill="#0c6c08" font-weight="bold" transform="matrix(0.707 -0.409 0.707 0.409 0 0)" xml:space="preserve"><tspan x="8" dy="0">Availability Zone</tspan></text><text font-family="Open Sans" y="30.799999999999997" font-size="20pt" fill="#0c6c08" font-weight="bold" transform="matrix(0.707 -0.409 0.707 0.409 0 0)" xml:space="preserve"><tspan x="8" dy="0">Availability Zone</tspan></text></svg></g></g><g opacity="1"><g id="1a2dc397-a74c-4cd7-9741-ab02bcc41004" transform="translate(0 0)"><svg x="176" y="546" overflow="visible"><text stroke="#ffffff" stroke-width="4" font-family="Open Sans" y="36.5" font-size="25pt" fill="#607d8b" font-weight="bold" transform="matrix(0.707 0.409 -0.707 0.409 0 0)" xml:space="preserve"><tspan x="8" dy="0">EC2</tspan></text><text font-family="Open Sans" y="36.5" font-size="25pt" fill="#607d8b" font-weight="bold" transform="matrix(0.707 0.409 -0.707 0.409 0 0)" xml:space="preserve"><tspan x="8" dy="0">EC2</tspan></text></svg></g></g><g opacity="1"><g id="c002a195-404a-45bc-b961-3a02ff5aa34f" transform="translate(0 0)"><svg x="384" y="407" overflow="visible"><text stroke="#000000" stroke-width="2" font-family="Open Sans" y="36.5" font-size="25pt" fill="#ffffff" font-weight="bold" transform="matrix(0.707 0.409 -0.707 0.409 0 0)" xml:space="preserve"><tspan x="8" dy="0">AZ</tspan></text><text font-family="Open Sans" y="36.5" font-size="25pt" fill="#ffffff" font-weight="bold" transform="matrix(0.707 0.409 -0.707 0.409 0 0)" xml:space="preserve"><tspan x="8" dy="0">AZ</tspan></text></svg></g></g><g opacity="1"><g id="c0085955-c48d-4bf9-8132-d1a857911ea6" transform="translate(0 0)"><svg x="38" y="206" overflow="visible"><text stroke="#000000" stroke-width="2" font-family="Open Sans" y="65" font-size="50pt" fill="#ffffff" font-weight="bold" transform="matrix(0.707 0.409 -0.707 0.409 0 0)" xml:space="preserve"><tspan x="8" dy="0">B</tspan></text><text font-family="Open Sans" y="65" font-size="50pt" fill="#ffffff" font-weight="bold" transform="matrix(0.707 0.409 -0.707 0.409 0 0)" xml:space="preserve"><tspan x="8" dy="0">B</tspan></text></svg></g></g><g opacity="1"><g id="c34f6a5e-dfdc-4d37-bc02-02d163d2108d" transform="translate(0 0)"><svg x="0" y="185" overflow="visible"><text stroke="#000000" stroke-width="2" font-family="Open Sans" y="36.5" font-size="25pt" fill="#ffffff" font-weight="bold" transform="matrix(0.707 0.409 -0.707 0.409 0 0)" xml:space="preserve"><tspan x="8" dy="0">AZ</tspan></text><text font-family="Open Sans" y="36.5" font-size="25pt" fill="#ffffff" font-weight="bold" transform="matrix(0.707 0.409 -0.707 0.409 0 0)" xml:space="preserve"><tspan x="8" dy="0">AZ</tspan></text></svg></g></g><g opacity="1"><g id="91866448-7401-4b81-8348-dba5288c0e30" transform="translate(0 0)"><svg x="16" y="453" overflow="visible"><text stroke="#ffffff" stroke-width="4" font-family="Open Sans" y="36.5" font-size="25pt" fill="#607d8b" font-weight="bold" transform="matrix(0.707 0.409 -0.707 0.409 0 0)" xml:space="preserve"><tspan x="8" dy="0">Linux Server</tspan></text><text font-family="Open Sans" y="36.5" font-size="25pt" fill="#607d8b" font-weight="bold" transform="matrix(0.707 0.409 -0.707 0.409 0 0)" xml:space="preserve"><tspan x="8" dy="0">Linux Server</tspan></text></svg></g></g><g opacity="1"><g id="e962a9e0-d5bb-4b16-affe-6c671255d8ba" transform="translate(0 0)"><svg x="-256" y="333" overflow="visible"><text stroke="#ffffff" stroke-width="4" font-family="Open Sans" y="36.5" font-size="25pt" fill="#ffc107" font-weight="bold" transform="matrix(0.707 -0.409 0.707 0.409 0 0)" xml:space="preserve"><tspan x="8" dy="0">Public-Sub-2</tspan></text><text font-family="Open Sans" y="36.5" font-size="25pt" fill="#ffc107" font-weight="bold" transform="matrix(0.707 -0.409 0.707 0.409 0 0)" xml:space="preserve"><tspan x="8" dy="0">Public-Sub-2</tspan></text></svg></g></g><g opacity="1"><g id="3e10190c-8bbc-41a7-8181-b03256097b28" transform="translate(0 0)"><svg x="208" y="564" overflow="visible"><text stroke="#ffffff" stroke-width="4" font-family="Open Sans" y="36.5" font-size="25pt" fill="#ffc107" font-weight="bold" transform="matrix(0.707 -0.409 0.707 0.409 0 0)" xml:space="preserve"><tspan x="8" dy="0">Public-Sub-1</tspan></text><text font-family="Open Sans" y="36.5" font-size="25pt" fill="#ffc107" font-weight="bold" transform="matrix(0.707 -0.409 0.707 0.409 0 0)" xml:space="preserve"><tspan x="8" dy="0">Public-Sub-1</tspan></text></svg></g></g><g opacity="1"><g id="18442149-6f89-4e96-b5b7-8f68a4b99fcd" transform="translate(0 0)"><svg x="-160" y="999" overflow="visible"><text stroke="#ffffff" stroke-width="4" font-family="Open Sans" y="36.5" font-size="25pt" fill="#009688" font-weight="bold" transform="matrix(0.707 -0.409 0.707 0.409 0 0)" xml:space="preserve"><tspan x="8" dy="0">AWS Architecture Diagram</tspan></text><text font-family="Open Sans" y="36.5" font-size="25pt" fill="#009688" font-weight="bold" transform="matrix(0.707 -0.409 0.707 0.409 0 0)" xml:space="preserve"><tspan x="8" dy="0">AWS Architecture Diagram</tspan></text></svg></g></g><g opacity="1"><g id="3e967785-6b21-4556-a2c5-13e81fa9f2b4" transform="translate(0 0)"><svg x="144" y="287" overflow="visible"><text stroke="#000000" stroke-width="2" font-family="Open Sans" y="36.5" font-size="25pt" fill="#31f520" font-weight="bold" transform="matrix(0.707 0.409 -0.707 0.409 0 0)" xml:space="preserve"><tspan x="8" dy="0">Public Subnet</tspan></text><text font-family="Open Sans" y="36.5" font-size="25pt" fill="#31f520" font-weight="bold" transform="matrix(0.707 0.409 -0.707 0.409 0 0)" xml:space="preserve"><tspan x="8" dy="0">Public Subnet</tspan></text></svg></g></g><g opacity="1"><g id="79231604-bf9c-446a-8073-a8a35028d9f9" transform="translate(0 0)"><svg x="-944" y="490" overflow="visible"><text stroke="#ffffff" stroke-width="4" font-family="Open Sans" y="36.5" font-size="25pt" fill="#009688" font-weight="bold" transform="matrix(0.707 -0.409 0.707 0.409 0 0)" xml:space="preserve"><tspan x="8" dy="0">IMProv IMP IAAS Overview</tspan></text><text font-family="Open Sans" y="36.5" font-size="25pt" fill="#009688" font-weight="bold" transform="matrix(0.707 -0.409 0.707 0.409 0 0)" xml:space="preserve"><tspan x="8" dy="0">IMProv IMP IAAS Overview</tspan></text></svg></g></g><g opacity="1"><g id="473bf313-fdeb-4a1b-bc1a-9012bdd8f7a2" transform="translate(0 0)"><svg x="-272" y="398" overflow="visible"><text stroke="#ffffff" stroke-width="4" font-family="Open Sans" y="36.5" font-size="25pt" fill="#f5b720" font-weight="bold" transform="matrix(0.707 0.409 -0.707 0.409 0 0)" xml:space="preserve"><tspan x="8" dy="0">Public-rtb</tspan></text><text font-family="Open Sans" y="36.5" font-size="25pt" fill="#f5b720" font-weight="bold" transform="matrix(0.707 0.409 -0.707 0.409 0 0)" xml:space="preserve"><tspan x="8" dy="0">Public-rtb</tspan></text></svg></g></g><g opacity="1"><g id="ac815695-ae97-41e5-9db6-fa2894f02d89" transform="translate(0 0)"><svg x="-192" y="333" overflow="visible"><text stroke="#ffffff" stroke-width="4" font-family="Open Sans" y="36.5" font-size="25pt" fill="#607d8b" font-weight="bold" transform="matrix(0.707 0.409 -0.707 0.409 0 0)" xml:space="preserve"><tspan x="8" dy="0">Wnd Server</tspan></text><text font-family="Open Sans" y="36.5" font-size="25pt" fill="#607d8b" font-weight="bold" transform="matrix(0.707 0.409 -0.707 0.409 0 0)" xml:space="preserve"><tspan x="8" dy="0">Wnd Server</tspan></text></svg></g></g><g opacity="1"><g id="f7225b13-10d8-4d41-ae6f-53244fd03f7f" transform="translate(0 0)"><svg x="144" y="731" overflow="visible"><text stroke="#ffffff" stroke-width="4" font-family="Open Sans" y="36.5" font-size="25pt" fill="#607d8b" font-weight="bold" transform="matrix(0.707 0.409 -0.707 0.409 0 0)" xml:space="preserve"><tspan x="8" dy="0">S3</tspan></text><text font-family="Open Sans" y="36.5" font-size="25pt" fill="#607d8b" font-weight="bold" transform="matrix(0.707 0.409 -0.707 0.409 0 0)" xml:space="preserve"><tspan x="8" dy="0">S3</tspan></text></svg></g></g><g opacity="1"><g id="0738b5e2-e3c0-4d1c-b444-93a2b4583db1" transform="translate(0 0)"><svg x="-464" y="342" overflow="visible"><text stroke="#ffffff" stroke-width="4" font-family="Open Sans" y="30.799999999999997" font-size="20pt" fill="#607d8b" font-weight="bold" transform="matrix(0.707 0.409 -0.707 0.409 0 0)" xml:space="preserve"><tspan x="8" dy="0">github</tspan></text><text font-family="Open Sans" y="30.799999999999997" font-size="20pt" fill="#607d8b" font-weight="bold" transform="matrix(0.707 0.409 -0.707 0.409 0 0)" xml:space="preserve"><tspan x="8" dy="0">github</tspan></text></svg></g></g><g opacity="1"><g id="42860b38-3411-487d-ad9f-3b76c36c19ba" transform="translate(0 0)"><svg x="-544" y="389" overflow="visible"><text stroke="#ffffff" stroke-width="4" font-family="Open Sans" y="36.5" font-size="25pt" fill="#607d8b" font-weight="bold" transform="matrix(0.707 0.409 -0.707 0.409 0 0)" xml:space="preserve"><tspan x="8" dy="0">S3</tspan></text><text font-family="Open Sans" y="36.5" font-size="25pt" fill="#607d8b" font-weight="bold" transform="matrix(0.707 0.409 -0.707 0.409 0 0)" xml:space="preserve"><tspan x="8" dy="0">S3</tspan></text></svg></g></g><g opacity="1"><g id="f23ba4b6-057e-47f2-b340-d8be3da02911" transform="translate(0 0)"><svg x="240" y="601" overflow="visible"><text stroke="#ffffff" stroke-width="4" font-family="Open Sans" y="30.799999999999997" font-size="20pt" fill="#0c6c08" font-weight="bold" transform="matrix(0.707 -0.409 0.707 0.409 0 0)" xml:space="preserve"><tspan x="8" dy="0">Availability Zone</tspan></text><text font-family="Open Sans" y="30.799999999999997" font-size="20pt" fill="#0c6c08" font-weight="bold" transform="matrix(0.707 -0.409 0.707 0.409 0 0)" xml:space="preserve"><tspan x="8" dy="0">Availability Zone</tspan></text></svg></g></g></g><g></g></g></svg>