<?xml version="1.0" encoding="UTF-8" standalone="no"?><svg xmlns="http://www.w3.org/2000/svg" xmlns:xlink="http://www.w3.org/1999/xlink" contentScriptType="application/ecmascript" contentStyleType="text/css" height="825px" preserveAspectRatio="none" style="width:793px;height:825px;" version="1.1" viewBox="0 0 793 825" width="793px" zoomAndPan="magnify"><defs><filter height="300%" id="f1c353amxa6nn0" width="300%" x="-1" y="-1"><feGaussianBlur result="blurOut" stdDeviation="2.0"/><feColorMatrix in="blurOut" result="blurOut2" type="matrix" values="0 0 0 0 0 0 0 0 0 0 0 0 0 0 0 0 0 0 .4 0"/><feOffset dx="4.0" dy="4.0" in="blurOut2" result="blurOut3"/><feBlend in="SourceGraphic" in2="blurOut3" mode="normal"/></filter></defs><g><text fill="#000000" font-family="sans-serif" font-size="18" lengthAdjust="spacingAndGlyphs" textLength="535" x="128" y="26.708">IMProv PRC2 sample Project Deployment - Activity Diagram</text><ellipse cx="395.5" cy="40.9531" fill="#000000" filter="url(#f1c353amxa6nn0)" rx="10" ry="10" style="stroke: none; stroke-width: 1.0;"/><rect fill="#000000" filter="url(#f1c353amxa6nn0)" height="6" rx="2.5" ry="2.5" style="stroke: #000000; stroke-width: 1.0;" width="719" x="36" y="126.6636"/><rect fill="#FEFECE" filter="url(#f1c353amxa6nn0)" height="33.9688" rx="12.5" ry="12.5" style="stroke: #A80036; stroke-width: 1.5;" width="197" x="48" y="152.6636"/><text fill="#000000" font-family="sans-serif" font-size="12" lengthAdjust="spacingAndGlyphs" textLength="177" x="58" y="173.8022">on Cedar (compute canada)</text><rect fill="#FEFECE" filter="url(#f1c353amxa6nn0)" height="33.9688" rx="12.5" ry="12.5" style="stroke: #A80036; stroke-width: 1.5;" width="240" x="273" y="152.6636"/><text fill="#000000" font-family="sans-serif" font-size="12" lengthAdjust="spacingAndGlyphs" textLength="220" x="283" y="173.8022">on AWS ( using preconfigured AMI )</text><rect fill="#FEFECE" filter="url(#f1c353amxa6nn0)" height="33.9688" rx="12.5" ry="12.5" style="stroke: #A80036; stroke-width: 1.5;" width="202" x="541" y="152.6636"/><text fill="#000000" font-family="sans-serif" font-size="12" lengthAdjust="spacingAndGlyphs" textLength="182" x="551" y="173.8022">on AWS ( configure new AMI )</text><rect fill="#000000" filter="url(#f1c353amxa6nn0)" height="6" rx="2.5" ry="2.5" style="stroke: #000000; stroke-width: 1.0;" width="719" x="36" y="206.6323"/><rect fill="#FEFECE" filter="url(#f1c353amxa6nn0)" height="33.9688" rx="12.5" ry="12.5" style="stroke: #A80036; stroke-width: 1.5;" width="275" x="258" y="232.6323"/><text fill="#000000" font-family="sans-serif" font-size="12" lengthAdjust="spacingAndGlyphs" textLength="255" x="268" y="253.771">ssh login to user account on linux server</text><rect fill="#FEFECE" filter="url(#f1c353amxa6nn0)" height="33.9688" rx="12.5" ry="12.5" style="stroke: #A80036; stroke-width: 1.5;" width="239" x="276" y="286.6011"/><text fill="#000000" font-family="sans-serif" font-size="12" lengthAdjust="spacingAndGlyphs" textLength="219" x="286" y="307.7397">pull in setup script from github gist</text><rect fill="#FEFECE" filter="url(#f1c353amxa6nn0)" height="33.9688" rx="12.5" ry="12.5" style="stroke: #A80036; stroke-width: 1.5;" width="176" x="307.5" y="340.5698"/><text fill="#000000" font-family="sans-serif" font-size="12" lengthAdjust="spacingAndGlyphs" textLength="156" x="317.5" y="361.7085">run step1 of setup script</text><rect fill="#FEFECE" filter="url(#f1c353amxa6nn0)" height="33.9688" rx="12.5" ry="12.5" style="stroke: #A80036; stroke-width: 1.5;" width="176" x="307.5" y="394.5386"/><text fill="#000000" font-family="sans-serif" font-size="12" lengthAdjust="spacingAndGlyphs" textLength="156" x="317.5" y="415.6772">run step2 of setup script</text><rect fill="#FEFECE" filter="url(#f1c353amxa6nn0)" height="33.9688" rx="12.5" ry="12.5" style="stroke: #A80036; stroke-width: 1.5;" width="176" x="307.5" y="448.5073"/><text fill="#000000" font-family="sans-serif" font-size="12" lengthAdjust="spacingAndGlyphs" textLength="156" x="317.5" y="469.646">run step3 of setup script</text><rect fill="#000000" filter="url(#f1c353amxa6nn0)" height="6" rx="2.5" ry="2.5" style="stroke: #000000; stroke-width: 1.0;" width="524" x="133.5" y="502.4761"/><rect fill="#FEFECE" filter="url(#f1c353amxa6nn0)" height="33.9688" rx="12.5" ry="12.5" style="stroke: #A80036; stroke-width: 1.5;" width="232" x="147.5" y="528.4761"/><text fill="#000000" font-family="sans-serif" font-size="12" lengthAdjust="spacingAndGlyphs" textLength="212" x="157.5" y="549.6147">on Cedar - run mjob_run_cedar.sh</text><rect fill="#FEFECE" filter="url(#f1c353amxa6nn0)" height="33.9688" rx="12.5" ry="12.5" style="stroke: #A80036; stroke-width: 1.5;" width="236" x="407.5" y="528.4761"/><text fill="#000000" font-family="sans-serif" font-size="12" lengthAdjust="spacingAndGlyphs" textLength="216" x="417.5" y="549.6147">on AWS - run aws_run_onenode.sh</text><rect fill="#000000" filter="url(#f1c353amxa6nn0)" height="6" rx="2.5" ry="2.5" style="stroke: #000000; stroke-width: 1.0;" width="524" x="133.5" y="582.4448"/><rect fill="#FEFECE" filter="url(#f1c353amxa6nn0)" height="33.9688" rx="12.5" ry="12.5" style="stroke: #A80036; stroke-width: 1.5;" width="360" x="215.5" y="608.4448"/><text fill="#000000" font-family="sans-serif" font-size="12" lengthAdjust="spacingAndGlyphs" textLength="340" x="225.5" y="629.5835">Review logs, archive and take a copy of the job output</text><rect fill="#FEFECE" filter="url(#f1c353amxa6nn0)" height="33.9688" rx="12.5" ry="12.5" style="stroke: #A80036; stroke-width: 1.5;" width="270" x="260.5" y="662.4136"/><text fill="#000000" font-family="sans-serif" font-size="12" lengthAdjust="spacingAndGlyphs" textLength="250" x="270.5" y="683.5522">next steps, Prepare a full length job run</text><polygon fill="#FEFECE" filter="url(#f1c353amxa6nn0)" points="294.5,70.9531,496.5,70.9531,508.5,82.9531,496.5,94.9531,294.5,94.9531,282.5,82.9531,294.5,70.9531" style="stroke: #A80036; stroke-width: 1.5;"/><text fill="#000000" font-family="sans-serif" font-size="11" lengthAdjust="spacingAndGlyphs" textLength="21" x="399.5" y="105.1636">Yes</text><text fill="#000000" font-family="sans-serif" font-size="11" lengthAdjust="spacingAndGlyphs" textLength="202" x="294.5" y="86.7612">Do you have Cedar or AWS access?</text><text fill="#000000" font-family="sans-serif" font-size="11" lengthAdjust="spacingAndGlyphs" textLength="15" x="267.5" y="80.3589">No</text><rect fill="#FEFECE" filter="url(#f1c353amxa6nn0)" height="33.9688" rx="12.5" ry="12.5" style="stroke: #A80036; stroke-width: 1.5;" width="203" x="294" y="738.3823"/><text fill="#000000" font-family="sans-serif" font-size="12" lengthAdjust="spacingAndGlyphs" textLength="183" x="304" y="759.521">Review Getting Started Guide</text><ellipse cx="395.5" cy="803.3511" fill="#FFFFFF" filter="url(#f1c353amxa6nn0)" rx="11" ry="11" style="stroke: #000000; stroke-width: 1.0;"/><ellipse cx="395.5" cy="803.3511" fill="#000000" rx="6" ry="6" style="stroke: #7F7F7F; stroke-width: 1.0;"/><line style="stroke: #A80036; stroke-width: 1.5;" x1="146.5" x2="146.5" y1="132.6636" y2="152.6636"/><polygon fill="#A80036" points="142.5,142.6636,146.5,152.6636,150.5,142.6636,146.5,146.6636" style="stroke: #A80036; stroke-width: 1.0;"/><line style="stroke: #A80036; stroke-width: 1.5;" x1="393" x2="393" y1="132.6636" y2="152.6636"/><polygon fill="#A80036" points="389,142.6636,393,152.6636,397,142.6636,393,146.6636" style="stroke: #A80036; stroke-width: 1.0;"/><line style="stroke: #A80036; stroke-width: 1.5;" x1="642" x2="642" y1="132.6636" y2="152.6636"/><polygon fill="#A80036" points="638,142.6636,642,152.6636,646,142.6636,642,146.6636" style="stroke: #A80036; stroke-width: 1.0;"/><line style="stroke: #A80036; stroke-width: 1.5;" x1="146.5" x2="146.5" y1="186.6323" y2="206.6323"/><polygon fill="#A80036" points="142.5,196.6323,146.5,206.6323,150.5,196.6323,146.5,200.6323" style="stroke: #A80036; stroke-width: 1.0;"/><line style="stroke: #A80036; stroke-width: 1.5;" x1="393" x2="393" y1="186.6323" y2="206.6323"/><polygon fill="#A80036" points="389,196.6323,393,206.6323,397,196.6323,393,200.6323" style="stroke: #A80036; stroke-width: 1.0;"/><line style="stroke: #A80036; stroke-width: 1.5;" x1="642" x2="642" y1="186.6323" y2="206.6323"/><polygon fill="#A80036" points="638,196.6323,642,206.6323,646,196.6323,642,200.6323" style="stroke: #A80036; stroke-width: 1.0;"/><line style="stroke: #A80036; stroke-width: 1.5;" x1="395.5" x2="395.5" y1="212.6323" y2="232.6323"/><polygon fill="#A80036" points="391.5,222.6323,395.5,232.6323,399.5,222.6323,395.5,226.6323" style="stroke: #A80036; stroke-width: 1.0;"/><line style="stroke: #A80036; stroke-width: 1.5;" x1="395.5" x2="395.5" y1="266.6011" y2="286.6011"/><polygon fill="#A80036" points="391.5,276.6011,395.5,286.6011,399.5,276.6011,395.5,280.6011" style="stroke: #A80036; stroke-width: 1.0;"/><line style="stroke: #A80036; stroke-width: 1.5;" x1="395.5" x2="395.5" y1="320.5698" y2="340.5698"/><polygon fill="#A80036" points="391.5,330.5698,395.5,340.5698,399.5,330.5698,395.5,334.5698" style="stroke: #A80036; stroke-width: 1.0;"/><line style="stroke: #A80036; stroke-width: 1.5;" x1="395.5" x2="395.5" y1="374.5386" y2="394.5386"/><polygon fill="#A80036" points="391.5,384.5386,395.5,394.5386,399.5,384.5386,395.5,388.5386" style="stroke: #A80036; stroke-width: 1.0;"/><line style="stroke: #A80036; stroke-width: 1.5;" x1="395.5" x2="395.5" y1="428.5073" y2="448.5073"/><polygon fill="#A80036" points="391.5,438.5073,395.5,448.5073,399.5,438.5073,395.5,442.5073" style="stroke: #A80036; stroke-width: 1.0;"/><line style="stroke: #A80036; stroke-width: 1.5;" x1="263.5" x2="263.5" y1="508.4761" y2="528.4761"/><polygon fill="#A80036" points="259.5,518.4761,263.5,528.4761,267.5,518.4761,263.5,522.4761" style="stroke: #A80036; stroke-width: 1.0;"/><line style="stroke: #A80036; stroke-width: 1.5;" x1="525.5" x2="525.5" y1="508.4761" y2="528.4761"/><polygon fill="#A80036" points="521.5,518.4761,525.5,528.4761,529.5,518.4761,525.5,522.4761" style="stroke: #A80036; stroke-width: 1.0;"/><line style="stroke: #A80036; stroke-width: 1.5;" x1="263.5" x2="263.5" y1="562.4448" y2="582.4448"/><polygon fill="#A80036" points="259.5,572.4448,263.5,582.4448,267.5,572.4448,263.5,576.4448" style="stroke: #A80036; stroke-width: 1.0;"/><line style="stroke: #A80036; stroke-width: 1.5;" x1="525.5" x2="525.5" y1="562.4448" y2="582.4448"/><polygon fill="#A80036" points="521.5,572.4448,525.5,582.4448,529.5,572.4448,525.5,576.4448" style="stroke: #A80036; stroke-width: 1.0;"/><line style="stroke: #A80036; stroke-width: 1.5;" x1="395.5" x2="395.5" y1="482.4761" y2="502.4761"/><polygon fill="#A80036" points="391.5,492.4761,395.5,502.4761,399.5,492.4761,395.5,496.4761" style="stroke: #A80036; stroke-width: 1.0;"/><line style="stroke: #A80036; stroke-width: 1.5;" x1="395.5" x2="395.5" y1="588.4448" y2="608.4448"/><polygon fill="#A80036" points="391.5,598.4448,395.5,608.4448,399.5,598.4448,395.5,602.4448" style="stroke: #A80036; stroke-width: 1.0;"/><line style="stroke: #A80036; stroke-width: 1.5;" x1="395.5" x2="395.5" y1="642.4136" y2="662.4136"/><polygon fill="#A80036" points="391.5,652.4136,395.5,662.4136,399.5,652.4136,395.5,656.4136" style="stroke: #A80036; stroke-width: 1.0;"/><line style="stroke: #A80036; stroke-width: 1.5;" x1="395.5" x2="395.5" y1="94.9531" y2="126.6636"/><polygon fill="#A80036" points="391.5,116.6636,395.5,126.6636,399.5,116.6636,395.5,120.6636" style="stroke: #A80036; stroke-width: 1.0;"/><line style="stroke: #A80036; stroke-width: 1.5;" x1="395.5" x2="395.5" y1="696.3823" y2="706.3823"/><line style="stroke: #A80036; stroke-width: 1.5;" x1="395.5" x2="767" y1="706.3823" y2="706.3823"/><polygon fill="#A80036" points="763,403.1206,767,393.1206,771,403.1206,767,399.1206" style="stroke: #A80036; stroke-width: 1.5;"/><line style="stroke: #A80036; stroke-width: 1.5;" x1="767" x2="767" y1="82.9531" y2="706.3823"/><line style="stroke: #A80036; stroke-width: 1.5;" x1="767" x2="508.5" y1="82.9531" y2="82.9531"/><polygon fill="#A80036" points="518.5,78.9531,508.5,82.9531,518.5,86.9531,514.5,82.9531" style="stroke: #A80036; stroke-width: 1.0;"/><line style="stroke: #A80036; stroke-width: 1.5;" x1="282.5" x2="24" y1="82.9531" y2="82.9531"/><polygon fill="#A80036" points="20,389.1206,24,399.1206,28,389.1206,24,393.1206" style="stroke: #A80036; stroke-width: 1.5;"/><line style="stroke: #A80036; stroke-width: 1.5;" x1="24" x2="24" y1="82.9531" y2="718.3823"/><line style="stroke: #A80036; stroke-width: 1.5;" x1="24" x2="395.5" y1="718.3823" y2="718.3823"/><line style="stroke: #A80036; stroke-width: 1.5;" x1="395.5" x2="395.5" y1="718.3823" y2="738.3823"/><polygon fill="#A80036" points="391.5,728.3823,395.5,738.3823,399.5,728.3823,395.5,732.3823" style="stroke: #A80036; stroke-width: 1.0;"/><line style="stroke: #A80036; stroke-width: 1.5;" x1="395.5" x2="395.5" y1="50.9531" y2="70.9531"/><polygon fill="#A80036" points="391.5,60.9531,395.5,70.9531,399.5,60.9531,395.5,64.9531" style="stroke: #A80036; stroke-width: 1.0;"/><line style="stroke: #A80036; stroke-width: 1.5;" x1="395.5" x2="395.5" y1="772.3511" y2="792.3511"/><polygon fill="#A80036" points="391.5,782.3511,395.5,792.3511,399.5,782.3511,395.5,786.3511" style="stroke: #A80036; stroke-width: 1.0;"/><!--MD5=[aa90fbdd34ea9637fb4ff571c9931a74]
@startuml
title IMProv PRC2 sample Project Deployment - Activity Diagram 


start



while (Do you have Cedar or AWS access?)  is (Yes)
 fork
  :on Cedar (compute canada);
 fork again
  :on AWS ( using preconfigured AMI );
 fork again
  :on AWS ( configure new AMI );

 end fork 

  :ssh login to user account on linux server;

  :pull in setup script from github gist;

  :run step1 of setup script;
  
  :run step2 of setup script;
  
  :run step3 of setup script;

  
 fork
  :on Cedar - run mjob_run_cedar.sh;
 fork again
  :on AWS - run aws_run_onenode.sh;
 end fork
 
  :Review logs, archive and take a copy of the job output;
  
  :next steps, Prepare a full length job run;

  
  
endwhile (No)
:Review Getting Started Guide;

stop
@enduml

PlantUML version 1.2019.12(Sun Nov 03 10:24:54 UTC 2019)
(GPL source distribution)
Java Runtime: Java(TM) SE Runtime Environment
JVM: Java HotSpot(TM) 64-Bit Server VM
Java Version: 1.7.0_25-b15
Operating System: Linux
Default Encoding: UTF-8
Language: en
Country: US
--></g></svg>