<?xml version="1.0" encoding="UTF-8" standalone="no"?><svg xmlns="http://www.w3.org/2000/svg" xmlns:xlink="http://www.w3.org/1999/xlink" contentScriptType="application/ecmascript" contentStyleType="text/css" height="1196px" preserveAspectRatio="none" style="width:1527px;height:1196px;" version="1.1" viewBox="0 0 1527 1196" width="1527px" zoomAndPan="magnify"><defs><filter height="300%" id="f8sftasbt4xsp" width="300%" x="-1" y="-1"><feGaussianBlur result="blurOut" stdDeviation="2.0"/><feColorMatrix in="blurOut" result="blurOut2" type="matrix" values="0 0 0 0 0 0 0 0 0 0 0 0 0 0 0 0 0 0 .4 0"/><feOffset dx="4.0" dy="4.0" in="blurOut2" result="blurOut3"/><feBlend in="SourceGraphic" in2="blurOut3" mode="normal"/></filter></defs><g><text fill="#000000" font-family="sans-serif" font-size="18" lengthAdjust="spacingAndGlyphs" textLength="443" x="541" y="26.708">Integrative Modeling using IMP - Activity Diagram</text><ellipse cx="762.5" cy="40.9531" fill="#000000" filter="url(#f8sftasbt4xsp)" rx="10" ry="10" style="stroke: none; stroke-width: 1.0;"/><path d="M881,75.3711 L881,83.9375 L861,87.9375 L881,91.9375 L881,100.5039 A0,0 0 0 0 881,100.5039 L1246,100.5039 A0,0 0 0 0 1246,100.5039 L1246,85.3711 L1236,75.3711 L881,75.3711 A0,0 0 0 0 881,75.3711 " fill="#FBFB77" filter="url(#f8sftasbt4xsp)" style="stroke: #A80036; stroke-width: 1.0;"/><path d="M1236,75.3711 L1236,85.3711 L1246,85.3711 L1236,75.3711 " fill="#FBFB77" style="stroke: #A80036; stroke-width: 1.0;"/><text fill="#000000" font-family="sans-serif" font-size="13" lengthAdjust="spacingAndGlyphs" textLength="344" x="887" y="92.438">https://integrativemodeling.org/tutorials/rnapolii_stalk/</text><rect fill="#FEFECE" filter="url(#f8sftasbt4xsp)" height="33.9688" rx="12.5" ry="12.5" style="stroke: #A80036; stroke-width: 1.5;" width="197" x="664" y="70.9531"/><text fill="#000000" font-family="sans-serif" font-size="12" font-weight="bold" lengthAdjust="spacingAndGlyphs" textLength="54" x="674" y="92.0918">Stage 1</text><text fill="#000000" font-family="sans-serif" font-size="12" lengthAdjust="spacingAndGlyphs" textLength="119" x="732" y="92.0918">- Gathering of data</text><rect fill="#FEFECE" filter="url(#f8sftasbt4xsp)" height="33.9688" rx="12.5" ry="12.5" style="stroke: #A80036; stroke-width: 1.5;" width="265" x="630" y="180.6323"/><text fill="#000000" font-family="sans-serif" font-size="12" lengthAdjust="spacingAndGlyphs" textLength="245" x="640" y="201.771">IMP module in MassSpecStudio - Wizard</text><rect fill="#000000" filter="url(#f8sftasbt4xsp)" height="6" rx="2.5" ry="2.5" style="stroke: #000000; stroke-width: 1.0;" width="1453" x="36" y="238.5034"/><rect fill="#FEFECE" filter="url(#f8sftasbt4xsp)" height="33.9688" rx="12.5" ry="12.5" style="stroke: #A80036; stroke-width: 1.5;" width="301" x="50" y="264.5034"/><text fill="#000000" font-family="sans-serif" font-size="12" lengthAdjust="spacingAndGlyphs" textLength="281" x="60" y="285.6421">Chemical crosslinking datasets ( .csv format)</text><rect fill="#FEFECE" filter="url(#f8sftasbt4xsp)" height="33.9688" rx="12.5" ry="12.5" style="stroke: #A80036; stroke-width: 1.5;" width="381" x="379" y="264.5034"/><text fill="#000000" font-family="sans-serif" font-size="12" lengthAdjust="spacingAndGlyphs" textLength="357" x="389" y="285.6421">With Sequence information (FASTA files for each subunit)</text><rect fill="#FEFECE" filter="url(#f8sftasbt4xsp)" height="33.9688" rx="12.5" ry="12.5" style="stroke: #A80036; stroke-width: 1.5;" width="257" x="788" y="264.5034"/><text fill="#000000" font-family="sans-serif" font-size="12" lengthAdjust="spacingAndGlyphs" textLength="237" x="798" y="285.6421">Electron density maps (.mrc, .txt files)</text><rect fill="#FEFECE" filter="url(#f8sftasbt4xsp)" height="33.9688" rx="12.5" ry="12.5" style="stroke: #A80036; stroke-width: 1.5;" width="402" x="1073" y="264.5034"/><text fill="#000000" font-family="sans-serif" font-size="12" lengthAdjust="spacingAndGlyphs" textLength="382" x="1083" y="285.6421">High resolution structure from x-ray crystallography (PDB file)</text><rect fill="#000000" filter="url(#f8sftasbt4xsp)" height="6" rx="2.5" ry="2.5" style="stroke: #000000; stroke-width: 1.0;" width="1453" x="36" y="318.4722"/><polygon fill="#FEFECE" filter="url(#f8sftasbt4xsp)" points="662.5,124.9219,862.5,124.9219,874.5,136.9219,862.5,148.9219,662.5,148.9219,650.5,136.9219,662.5,124.9219" style="stroke: #A80036; stroke-width: 1.5;"/><text fill="#000000" font-family="sans-serif" font-size="11" lengthAdjust="spacingAndGlyphs" textLength="15" x="766.5" y="159.1323">No</text><text fill="#000000" font-family="sans-serif" font-size="11" lengthAdjust="spacingAndGlyphs" textLength="200" x="662.5" y="140.73">Artifacts collation for IM complete ?</text><text fill="#000000" font-family="sans-serif" font-size="11" lengthAdjust="spacingAndGlyphs" textLength="21" x="629.5" y="134.3276">Yes</text><rect fill="#FEFECE" filter="url(#f8sftasbt4xsp)" height="33.9688" rx="12.5" ry="12.5" style="stroke: #A80036; stroke-width: 1.5;" width="570" x="477.5" y="366.4722"/><text fill="#000000" font-family="sans-serif" font-size="12" font-weight="bold" lengthAdjust="spacingAndGlyphs" textLength="54" x="487.5" y="387.6108">Stage 2</text><text fill="#000000" font-family="sans-serif" font-size="12" lengthAdjust="spacingAndGlyphs" textLength="492" x="545.5" y="387.6108">- Representation of subunits and translation of the data into spatial restraints</text><rect fill="#000000" filter="url(#f8sftasbt4xsp)" height="6" rx="2.5" ry="2.5" style="stroke: #000000; stroke-width: 1.0;" width="1494" x="15.5" y="420.4409"/><rect fill="#FEFECE" filter="url(#f8sftasbt4xsp)" height="33.9688" rx="12.5" ry="12.5" style="stroke: #A80036; stroke-width: 1.5;" width="315" x="29.5" y="507.4843"/><text fill="#000000" font-family="sans-serif" font-size="12" lengthAdjust="spacingAndGlyphs" textLength="295" x="39.5" y="528.623">Prepare YAML config for modeling python script</text><path d="M794,439.3663 L794,459.4253 L774,463.4253 L794,467.4253 L794,487.4843 A0,0 0 0 0 794,487.4843 L1360,487.4843 A0,0 0 0 0 1360,487.4843 L1360,449.3663 L1350,439.3663 L794,439.3663 A0,0 0 0 0 794,439.3663 " fill="#FBFB77" filter="url(#f8sftasbt4xsp)" style="stroke: #A80036; stroke-width: 1.0;"/><path d="M1350,439.3663 L1350,449.3663 L1360,449.3663 L1350,439.3663 " fill="#FBFB77" style="stroke: #A80036; stroke-width: 1.0;"/><text fill="#000000" font-family="monospace" font-size="13" lengthAdjust="spacingAndGlyphs" textLength="512" x="800" y="456.5659">define the system components and their representation parameters</text><line style="stroke: #A80036; stroke-width: 1.0;" x1="794" x2="1360" y1="462.3515" y2="462.3515"/><line style="stroke: #A80036; stroke-width: 1.0;" x1="794" x2="1360" y1="464.3515" y2="464.3515"/><text fill="#000000" font-family="sans-serif" font-size="13" lengthAdjust="spacingAndGlyphs" textLength="545" x="800" y="479.4184">The calculation of the GMM of a subunit can be done automatically in the topology file</text><rect fill="#FEFECE" filter="url(#f8sftasbt4xsp)" height="33.9688" rx="12.5" ry="12.5" style="stroke: #A80036; stroke-width: 1.5;" width="353" x="421" y="446.4409"/><text fill="#000000" font-family="sans-serif" font-size="12" lengthAdjust="spacingAndGlyphs" textLength="333" x="431" y="467.5796">Build the Model Representation Using a Topology File</text><path d="M821.5,507.4843 L821.5,527.5433 L801.5,531.5433 L821.5,535.5433 L821.5,555.6024 A0,0 0 0 0 821.5,555.6024 L1495.5,555.6024 A0,0 0 0 0 1495.5,555.6024 L1495.5,517.4843 L1485.5,507.4843 L821.5,507.4843 A0,0 0 0 0 821.5,507.4843 " fill="#FBFB77" filter="url(#f8sftasbt4xsp)" style="stroke: #A80036; stroke-width: 1.0;"/><path d="M1485.5,507.4843 L1485.5,517.4843 L1495.5,517.4843 L1485.5,507.4843 " fill="#FBFB77" style="stroke: #A80036; stroke-width: 1.0;"/><text fill="#000000" font-family="monospace" font-size="13" lengthAdjust="spacingAndGlyphs" textLength="368" x="827.5" y="524.6839">After defining the representation of the model</text><line style="stroke: #A80036; stroke-width: 1.0;" x1="821.5" x2="1495.5" y1="530.4695" y2="530.4695"/><line style="stroke: #A80036; stroke-width: 1.0;" x1="821.5" x2="1495.5" y1="532.4695" y2="532.4695"/><text fill="#000000" font-family="sans-serif" font-size="13" lengthAdjust="spacingAndGlyphs" textLength="653" x="827.5" y="547.5364">we build the restraints by which the individual structural models will be scored based on the input data;</text><rect fill="#FEFECE" filter="url(#f8sftasbt4xsp)" height="33.9688" rx="12.5" ry="12.5" style="stroke: #A80036; stroke-width: 1.5;" width="408" x="393.5" y="514.559"/><text fill="#000000" font-family="sans-serif" font-size="12" lengthAdjust="spacingAndGlyphs" textLength="384" x="403.5" y="535.6976">Building the System Representation and Degrees of Freedom</text><rect fill="#FEFECE" filter="url(#f8sftasbt4xsp)" height="33.9688" rx="12.5" ry="12.5" style="stroke: #A80036; stroke-width: 1.5;" width="450" x="372.5" y="575.6024"/><text fill="#000000" font-family="sans-serif" font-size="12" lengthAdjust="spacingAndGlyphs" textLength="430" x="382.5" y="596.741">convert the data into spatial restraints (with modeling python script)</text><rect fill="#000000" filter="url(#f8sftasbt4xsp)" height="6" rx="2.5" ry="2.5" style="stroke: #000000; stroke-width: 1.0;" width="1494" x="15.5" y="629.5711"/><rect fill="#FEFECE" filter="url(#f8sftasbt4xsp)" height="33.9688" rx="12.5" ry="12.5" style="stroke: #A80036; stroke-width: 1.5;" width="143" x="691" y="655.5711"/><text fill="#000000" font-family="sans-serif" font-size="12" font-weight="bold" lengthAdjust="spacingAndGlyphs" textLength="54" x="701" y="676.7098">Stage 3</text><text fill="#000000" font-family="sans-serif" font-size="12" lengthAdjust="spacingAndGlyphs" textLength="65" x="759" y="676.7098">- Sampling</text><rect fill="#000000" filter="url(#f8sftasbt4xsp)" height="6" rx="2.5" ry="2.5" style="stroke: #000000; stroke-width: 1.0;" width="845" x="340" y="709.5399"/><path d="M638,728.4652 L638,748.5242 L618,752.5242 L638,756.5242 L638,776.5833 A0,0 0 0 0 638,776.5833 L1171,776.5833 A0,0 0 0 0 1171,776.5833 L1171,738.4652 L1161,728.4652 L638,728.4652 A0,0 0 0 0 638,728.4652 " fill="#FBFB77" filter="url(#f8sftasbt4xsp)" style="stroke: #A80036; stroke-width: 1.0;"/><path d="M1161,728.4652 L1161,738.4652 L1171,738.4652 L1161,728.4652 " fill="#FBFB77" style="stroke: #A80036; stroke-width: 1.0;"/><text fill="#000000" font-family="monospace" font-size="13" lengthAdjust="spacingAndGlyphs" textLength="512" x="644" y="745.6648">With the system representation built and data restraints entered</text><line style="stroke: #A80036; stroke-width: 1.0;" x1="638" x2="1171" y1="751.4504" y2="751.4504"/><line style="stroke: #A80036; stroke-width: 1.0;" x1="638" x2="1171" y1="753.4504" y2="753.4504"/><text fill="#000000" font-family="sans-serif" font-size="13" lengthAdjust="spacingAndGlyphs" textLength="317" x="644" y="768.5173">the system is now ready to sample configurations</text><rect fill="#FEFECE" filter="url(#f8sftasbt4xsp)" height="33.9688" rx="12.5" ry="12.5" style="stroke: #A80036; stroke-width: 1.5;" width="237" x="381" y="735.5399"/><text fill="#000000" font-family="sans-serif" font-size="12" lengthAdjust="spacingAndGlyphs" textLength="217" x="391" y="756.6785">First, sampling parameters are set</text><rect fill="#FEFECE" filter="url(#f8sftasbt4xsp)" height="33.9688" rx="12.5" ry="12.5" style="stroke: #A80036; stroke-width: 1.5;" width="291" x="354" y="796.5833"/><text fill="#000000" font-family="sans-serif" font-size="12" lengthAdjust="spacingAndGlyphs" textLength="271" x="364" y="817.7219">Next, a replica exchange run can be set up</text><rect fill="#000000" filter="url(#f8sftasbt4xsp)" height="6" rx="2.5" ry="2.5" style="stroke: #000000; stroke-width: 1.0;" width="845" x="340" y="850.552"/><rect fill="#FEFECE" filter="url(#f8sftasbt4xsp)" height="33.9688" rx="12.5" ry="12.5" style="stroke: #A80036; stroke-width: 1.5;" width="136" x="694.5" y="876.552"/><text fill="#000000" font-family="sans-serif" font-size="12" font-weight="bold" lengthAdjust="spacingAndGlyphs" textLength="54" x="704.5" y="897.6907">Stage 4</text><text fill="#000000" font-family="sans-serif" font-size="12" lengthAdjust="spacingAndGlyphs" textLength="58" x="762.5" y="897.6907">- Analysis</text><rect fill="#000000" filter="url(#f8sftasbt4xsp)" height="6" rx="2.5" ry="2.5" style="stroke: #000000; stroke-width: 1.0;" width="711" x="407" y="930.5208"/><path d="M499,946.5208 L499,974.1462 L479,978.1462 L499,982.1462 L499,1009.7716 A0,0 0 0 0 499,1009.7716 L1104,1009.7716 A0,0 0 0 0 1104,1009.7716 L1104,956.5208 L1094,946.5208 L499,946.5208 A0,0 0 0 0 499,946.5208 " fill="#FBFB77" filter="url(#f8sftasbt4xsp)" style="stroke: #A80036; stroke-width: 1.0;"/><path d="M1094,946.5208 L1094,956.5208 L1104,956.5208 L1094,946.5208 " fill="#FBFB77" style="stroke: #A80036; stroke-width: 1.0;"/><text fill="#000000" font-family="monospace" font-size="13" lengthAdjust="spacingAndGlyphs" textLength="584" x="505" y="963.7204">In the analysis stage we cluster (group by similarity) the sampled models</text><line style="stroke: #A80036; stroke-width: 1.0;" x1="499" x2="1104" y1="969.506" y2="969.506"/><line style="stroke: #A80036; stroke-width: 1.0;" x1="499" x2="1104" y1="971.506" y2="971.506"/><text fill="#000000" font-family="sans-serif" font-size="13" lengthAdjust="spacingAndGlyphs" textLength="497" x="505" y="986.5729">to determine high-probability configurations. Comparing clusters may indicate</text><text fill="#000000" font-family="sans-serif" font-size="13" lengthAdjust="spacingAndGlyphs" textLength="408" x="505" y="1001.7057">that there are multiple acceptable configurations given the data</text><rect fill="#FEFECE" filter="url(#f8sftasbt4xsp)" height="33.9688" rx="12.5" ry="12.5" style="stroke: #A80036; stroke-width: 1.5;" width="58" x="421" y="961.1618"/><text fill="#000000" font-family="sans-serif" font-size="12" lengthAdjust="spacingAndGlyphs" textLength="38" x="431" y="982.3005">Part 1</text><path d="M499,1035.2634 L499,1042.756 L479,1046.756 L499,1050.756 L499,1058.2486 A0,0 0 0 0 499,1058.2486 L912,1058.2486 A0,0 0 0 0 912,1058.2486 L912,1045.2634 L902,1035.2634 L499,1035.2634 A0,0 0 0 0 499,1035.2634 " fill="#FBFB77" filter="url(#f8sftasbt4xsp)" style="stroke: #A80036; stroke-width: 1.0;"/><path d="M902,1035.2634 L902,1045.2634 L912,1045.2634 L902,1035.2634 " fill="#FBFB77" style="stroke: #A80036; stroke-width: 1.0;"/><text fill="#000000" font-family="monospace" font-size="13" lengthAdjust="spacingAndGlyphs" textLength="392" x="505" y="1052.463">In this stage we perform post-clustering analysis</text><rect fill="#FEFECE" filter="url(#f8sftasbt4xsp)" height="33.9688" rx="12.5" ry="12.5" style="stroke: #A80036; stroke-width: 1.5;" width="58" x="421" y="1029.7716"/><text fill="#000000" font-family="sans-serif" font-size="12" lengthAdjust="spacingAndGlyphs" textLength="38" x="431" y="1050.9103">Part 2</text><rect fill="#000000" filter="url(#f8sftasbt4xsp)" height="6" rx="2.5" ry="2.5" style="stroke: #000000; stroke-width: 1.0;" width="711" x="407" y="1083.7404"/><rect fill="#FEFECE" filter="url(#f8sftasbt4xsp)" height="33.9688" rx="12.5" ry="12.5" style="stroke: #A80036; stroke-width: 1.5;" width="52" x="736.5" y="1109.7404"/><text fill="#000000" font-family="sans-serif" font-size="12" lengthAdjust="spacingAndGlyphs" textLength="32" x="746.5" y="1130.879">IM fin</text><ellipse cx="762.5" cy="1174.7091" fill="#FFFFFF" filter="url(#f8sftasbt4xsp)" rx="11" ry="11" style="stroke: #000000; stroke-width: 1.0;"/><ellipse cx="762.5" cy="1174.7091" fill="#000000" rx="6" ry="6" style="stroke: #7F7F7F; stroke-width: 1.0;"/><line style="stroke: #A80036; stroke-width: 1.5;" x1="762.5" x2="762.5" y1="50.9531" y2="70.9531"/><polygon fill="#A80036" points="758.5,60.9531,762.5,70.9531,766.5,60.9531,762.5,64.9531" style="stroke: #A80036; stroke-width: 1.0;"/><line style="stroke: #A80036; stroke-width: 1.5;" x1="200.5" x2="200.5" y1="244.5034" y2="264.5034"/><polygon fill="#A80036" points="196.5,254.5034,200.5,264.5034,204.5,254.5034,200.5,258.5034" style="stroke: #A80036; stroke-width: 1.0;"/><line style="stroke: #A80036; stroke-width: 1.5;" x1="569.5" x2="569.5" y1="244.5034" y2="264.5034"/><polygon fill="#A80036" points="565.5,254.5034,569.5,264.5034,573.5,254.5034,569.5,258.5034" style="stroke: #A80036; stroke-width: 1.0;"/><line style="stroke: #A80036; stroke-width: 1.5;" x1="916.5" x2="916.5" y1="244.5034" y2="264.5034"/><polygon fill="#A80036" points="912.5,254.5034,916.5,264.5034,920.5,254.5034,916.5,258.5034" style="stroke: #A80036; stroke-width: 1.0;"/><line style="stroke: #A80036; stroke-width: 1.5;" x1="1274" x2="1274" y1="244.5034" y2="264.5034"/><polygon fill="#A80036" points="1270,254.5034,1274,264.5034,1278,254.5034,1274,258.5034" style="stroke: #A80036; stroke-width: 1.0;"/><line style="stroke: #A80036; stroke-width: 1.5;" x1="200.5" x2="200.5" y1="298.4722" y2="318.4722"/><polygon fill="#A80036" points="196.5,308.4722,200.5,318.4722,204.5,308.4722,200.5,312.4722" style="stroke: #A80036; stroke-width: 1.0;"/><line style="stroke: #A80036; stroke-width: 1.5;" x1="569.5" x2="569.5" y1="298.4722" y2="318.4722"/><polygon fill="#A80036" points="565.5,308.4722,569.5,318.4722,573.5,308.4722,569.5,312.4722" style="stroke: #A80036; stroke-width: 1.0;"/><line style="stroke: #A80036; stroke-width: 1.5;" x1="916.5" x2="916.5" y1="298.4722" y2="318.4722"/><polygon fill="#A80036" points="912.5,308.4722,916.5,318.4722,920.5,308.4722,916.5,312.4722" style="stroke: #A80036; stroke-width: 1.0;"/><line style="stroke: #A80036; stroke-width: 1.5;" x1="1274" x2="1274" y1="298.4722" y2="318.4722"/><polygon fill="#A80036" points="1270,308.4722,1274,318.4722,1278,308.4722,1274,312.4722" style="stroke: #A80036; stroke-width: 1.0;"/><line style="stroke: #A80036; stroke-width: 1.5;" x1="762.5" x2="762.5" y1="214.6011" y2="238.5034"/><polygon fill="#A80036" points="758.5,228.5034,762.5,238.5034,766.5,228.5034,762.5,232.5034" style="stroke: #A80036; stroke-width: 1.0;"/><line style="stroke: #A80036; stroke-width: 1.5;" x1="762.5" x2="762.5" y1="148.9219" y2="180.6323"/><polygon fill="#A80036" points="758.5,170.6323,762.5,180.6323,766.5,170.6323,762.5,174.6323" style="stroke: #A80036; stroke-width: 1.0;"/><line style="stroke: #A80036; stroke-width: 1.5;" x1="762.5" x2="762.5" y1="324.4722" y2="334.4722"/><line style="stroke: #A80036; stroke-width: 1.5;" x1="762.5" x2="1501" y1="334.4722" y2="334.4722"/><polygon fill="#A80036" points="1497,238.6011,1501,228.6011,1505,238.6011,1501,234.6011" style="stroke: #A80036; stroke-width: 1.5;"/><line style="stroke: #A80036; stroke-width: 1.5;" x1="1501" x2="1501" y1="136.9219" y2="334.4722"/><line style="stroke: #A80036; stroke-width: 1.5;" x1="1501" x2="874.5" y1="136.9219" y2="136.9219"/><polygon fill="#A80036" points="884.5,132.9219,874.5,136.9219,884.5,140.9219,880.5,136.9219" style="stroke: #A80036; stroke-width: 1.0;"/><line style="stroke: #A80036; stroke-width: 1.5;" x1="650.5" x2="24" y1="136.9219" y2="136.9219"/><polygon fill="#A80036" points="20,224.6011,24,234.6011,28,224.6011,24,228.6011" style="stroke: #A80036; stroke-width: 1.5;"/><line style="stroke: #A80036; stroke-width: 1.5;" x1="24" x2="24" y1="136.9219" y2="346.4722"/><line style="stroke: #A80036; stroke-width: 1.5;" x1="24" x2="762.5" y1="346.4722" y2="346.4722"/><line style="stroke: #A80036; stroke-width: 1.5;" x1="762.5" x2="762.5" y1="346.4722" y2="366.4722"/><polygon fill="#A80036" points="758.5,356.4722,762.5,366.4722,766.5,356.4722,762.5,360.4722" style="stroke: #A80036; stroke-width: 1.0;"/><line style="stroke: #A80036; stroke-width: 1.5;" x1="762.5" x2="762.5" y1="104.9219" y2="124.9219"/><polygon fill="#A80036" points="758.5,114.9219,762.5,124.9219,766.5,114.9219,762.5,118.9219" style="stroke: #A80036; stroke-width: 1.0;"/><line style="stroke: #A80036; stroke-width: 1.5;" x1="597.5" x2="597.5" y1="480.4097" y2="514.559"/><polygon fill="#A80036" points="593.5,504.559,597.5,514.559,601.5,504.559,597.5,508.559" style="stroke: #A80036; stroke-width: 1.0;"/><line style="stroke: #A80036; stroke-width: 1.5;" x1="597.5" x2="597.5" y1="548.5277" y2="575.6024"/><polygon fill="#A80036" points="593.5,565.6024,597.5,575.6024,601.5,565.6024,597.5,569.6024" style="stroke: #A80036; stroke-width: 1.0;"/><line style="stroke: #A80036; stroke-width: 1.5;" x1="187" x2="187" y1="426.4409" y2="507.4843"/><polygon fill="#A80036" points="183,497.4843,187,507.4843,191,497.4843,187,501.4843" style="stroke: #A80036; stroke-width: 1.0;"/><line style="stroke: #A80036; stroke-width: 1.5;" x1="597.5" x2="597.5" y1="426.4409" y2="446.4409"/><polygon fill="#A80036" points="593.5,436.4409,597.5,446.4409,601.5,436.4409,597.5,440.4409" style="stroke: #A80036; stroke-width: 1.0;"/><line style="stroke: #A80036; stroke-width: 1.5;" x1="187" x2="187" y1="541.4531" y2="629.5711"/><polygon fill="#A80036" points="183,619.5711,187,629.5711,191,619.5711,187,623.5711" style="stroke: #A80036; stroke-width: 1.0;"/><line style="stroke: #A80036; stroke-width: 1.5;" x1="597.5" x2="597.5" y1="609.5711" y2="629.5711"/><polygon fill="#A80036" points="593.5,619.5711,597.5,629.5711,601.5,619.5711,597.5,623.5711" style="stroke: #A80036; stroke-width: 1.0;"/><line style="stroke: #A80036; stroke-width: 1.5;" x1="762.5" x2="762.5" y1="400.4409" y2="420.4409"/><polygon fill="#A80036" points="758.5,410.4409,762.5,420.4409,766.5,410.4409,762.5,414.4409" style="stroke: #A80036; stroke-width: 1.0;"/><line style="stroke: #A80036; stroke-width: 1.5;" x1="762.5" x2="762.5" y1="635.5711" y2="655.5711"/><polygon fill="#A80036" points="758.5,645.5711,762.5,655.5711,766.5,645.5711,762.5,649.5711" style="stroke: #A80036; stroke-width: 1.0;"/><line style="stroke: #A80036; stroke-width: 1.5;" x1="499.5" x2="499.5" y1="769.5086" y2="796.5833"/><polygon fill="#A80036" points="495.5,786.5833,499.5,796.5833,503.5,786.5833,499.5,790.5833" style="stroke: #A80036; stroke-width: 1.0;"/><line style="stroke: #A80036; stroke-width: 1.5;" x1="499.5" x2="499.5" y1="715.5399" y2="735.5399"/><polygon fill="#A80036" points="495.5,725.5399,499.5,735.5399,503.5,725.5399,499.5,729.5399" style="stroke: #A80036; stroke-width: 1.0;"/><line style="stroke: #A80036; stroke-width: 1.5;" x1="499.5" x2="499.5" y1="830.552" y2="850.552"/><polygon fill="#A80036" points="495.5,840.552,499.5,850.552,503.5,840.552,499.5,844.552" style="stroke: #A80036; stroke-width: 1.0;"/><line style="stroke: #A80036; stroke-width: 1.5;" x1="762.5" x2="762.5" y1="689.5399" y2="709.5399"/><polygon fill="#A80036" points="758.5,699.5399,762.5,709.5399,766.5,699.5399,762.5,703.5399" style="stroke: #A80036; stroke-width: 1.0;"/><line style="stroke: #A80036; stroke-width: 1.5;" x1="762.5" x2="762.5" y1="856.552" y2="876.552"/><polygon fill="#A80036" points="758.5,866.552,762.5,876.552,766.5,866.552,762.5,870.552" style="stroke: #A80036; stroke-width: 1.0;"/><line style="stroke: #A80036; stroke-width: 1.5;" x1="450" x2="450" y1="995.1306" y2="1029.7716"/><polygon fill="#A80036" points="446,1019.7716,450,1029.7716,454,1019.7716,450,1023.7716" style="stroke: #A80036; stroke-width: 1.0;"/><line style="stroke: #A80036; stroke-width: 1.5;" x1="450" x2="450" y1="936.5208" y2="961.1618"/><polygon fill="#A80036" points="446,951.1618,450,961.1618,454,951.1618,450,955.1618" style="stroke: #A80036; stroke-width: 1.0;"/><line style="stroke: #A80036; stroke-width: 1.5;" x1="450" x2="450" y1="1063.7404" y2="1083.7404"/><polygon fill="#A80036" points="446,1073.7404,450,1083.7404,454,1073.7404,450,1077.7404" style="stroke: #A80036; stroke-width: 1.0;"/><line style="stroke: #A80036; stroke-width: 1.5;" x1="762.5" x2="762.5" y1="910.5208" y2="930.5208"/><polygon fill="#A80036" points="758.5,920.5208,762.5,930.5208,766.5,920.5208,762.5,924.5208" style="stroke: #A80036; stroke-width: 1.0;"/><line style="stroke: #A80036; stroke-width: 1.5;" x1="762.5" x2="762.5" y1="1089.7404" y2="1109.7404"/><polygon fill="#A80036" points="758.5,1099.7404,762.5,1109.7404,766.5,1099.7404,762.5,1103.7404" style="stroke: #A80036; stroke-width: 1.0;"/><line style="stroke: #A80036; stroke-width: 1.5;" x1="762.5" x2="762.5" y1="1143.7091" y2="1163.7091"/><polygon fill="#A80036" points="758.5,1153.7091,762.5,1163.7091,766.5,1153.7091,762.5,1157.7091" style="stroke: #A80036; stroke-width: 1.0;"/><!--MD5=[856e03cb28fe6ee8fce664dfbfd53fc2]
@startuml
title Integrative Modeling using IMP - Activity Diagram 


start

:<b>Stage 1</b> - Gathering of data;
note right
 https://integrativemodeling.org/tutorials/rnapolii_stalk/
end note

while (Artifacts collation for IM complete ?)  is (No)
 :IMP module in MassSpecStudio - Wizard;
 fork
  :Chemical crosslinking datasets ( .csv format);
 fork again
  :With Sequence information (FASTA files for each subunit) ;
 fork again
  :Electron density maps (.mrc, .txt files);
 fork again
  :High resolution structure from x-ray crystallography (PDB file);
 end fork 
 
endwhile (Yes)

:<b>Stage 2</b> - Representation of subunits and translation of the data into spatial restraints;
 fork
  :Prepare YAML config for modeling python script;
 fork again 
  :Build the Model Representation Using a Topology File;
  note right
    ""define the system components and their representation parameters""
    ====
    The calculation of the GMM of a subunit can be done automatically in the topology file
  end note
  :Building the System Representation and Degrees of Freedom ;
  note right
    ""After defining the representation of the model""
    ====
    we build the restraints by which the individual structural models will be scored based on the input data;
  end note
  :convert the data into spatial restraints (with modeling python script);
 end fork 
 
:<b>Stage 3</b> - Sampling;
 fork
  :First, sampling parameters are set;
  note right
   ""With the system representation built and data restraints entered""
   ====
   the system is now ready to sample configurations
  end note
  :Next, a replica exchange run can be set up;
 end fork

:<b>Stage 4</b> - Analysis;

 fork
  :Part 1;
  note right
    ""In the analysis stage we cluster (group by similarity) the sampled models""
    ====
    to determine high-probability configurations. Comparing clusters may indicate 
    that there are multiple acceptable configurations given the data
  end note
  :Part 2;
  note right
    ""In this stage we perform post-clustering analysis""
  end note
 end fork




:IM fin;

stop
@enduml

PlantUML version 1.2019.12(Sun Nov 03 10:24:54 UTC 2019)
(GPL source distribution)
Java Runtime: Java(TM) SE Runtime Environment
JVM: Java HotSpot(TM) 64-Bit Server VM
Java Version: 1.7.0_25-b15
Operating System: Linux
Default Encoding: UTF-8
Language: en
Country: US
--></g></svg>